<svg xmlns="http://www.w3.org/2000/svg" data-name="Layer 1" viewBox="0 0 122.88 122.88">
  <path fill="#fff" d="m24 29.38 69.49 69.54A49.31 49.31 0 0 1 24 29.38ZM101.68 90 32.92 21.2a49.29 49.29 0 0 1 77.83 40.24A49.34 49.34 0 0 1 108 77.73 48.85 48.85 0 0 1 101.68 90Z"/>
  <path fill-rule="evenodd" d="M38.45 32.9h31q10.13 0 15.16 4.82t5 13.73q0 9.13-5.5 14.28t-16.74 5.15H57.15v22.33h-18.7V32.9Zm18.7 25.78h4.59c3.62 0 6.17-.64 7.62-1.89A6 6 0 0 0 71.55 52a6.69 6.69 0 0 0-1.91-4.82c-1.26-1.32-3.66-2-7.15-2h-5.34v13.5Z"/>
  <path fill="#d92d27" d="M61.44 122.88A61.31 61.31 0 1 0 38 118.22a61.29 61.29 0 0 0 23.49 4.66ZM101.68 90 32.93 21.2a49.44 49.44 0 0 1 47.38-5.34A49.53 49.53 0 0 1 107 42.58a49 49 0 0 1 3.73 18.86A48.93 48.93 0 0 1 101.68 90ZM24 29.38l69.5 69.54A49.32 49.32 0 0 1 24 29.38Z"/>
</svg>
